<svg xmlns="http://www.w3.org/2000/svg" width="20" height="20" viewBox="0 0 20 20"><path fill="#3F414D" d="M10 0C4.486 0 0 4.486 0 10s4.486 10 10 10 10-4.486 10-10S15.514 0 10 0zm1.105 13.356c-1.433 0-1.963-.93-1.963-.93s-.256 1.004-.444 1.718c-.188.713-.22.724-.403 1.126-.205.452-.707 1.163-.855 1.382-.118.174-.264.32-.35.302-.085-.016-.085-.106-.106-.294-.029-.26-.112-1.128-.072-1.716.026-.383.16-1.031.16-1.031l.967-3.96c-.595-1.22-.107-3.127 1.248-3.127.961 0 1.213.87.919 1.916-.131.466-.542 1.775-.555 1.836-.012.062-.043.192-.036.321 0 .382.292 1.162 1.302 1.162 1.628 0 2.4-2.407 2.4-4.016 0-1.295-.824-2.858-3.225-2.858-2.447 0-3.797 1.862-3.797 3.571 0 .959.378 1.344.554 1.555.142.172.07.337.07.337l-.154.62c-.057.204-.24.31-.497.16-.258-.148-1.485-.668-1.485-2.887 0-2.273 2.141-4.63 5.465-4.63 2.639 0 4.97 1.66 4.97 4.348 0 3.32-2.074 5.095-4.113 5.095z"/></svg>