<svg xmlns="http://www.w3.org/2000/svg" width="25" height="20" viewBox="0 0 25 20"><path fill="#3F414D" d="M25 2.367c-.922.403-1.91.673-2.948.796A5.077 5.077 0 0024.308.37c-.99.578-2.09.998-3.257 1.224A5.155 5.155 0 0017.308 0c-2.833 0-5.13 2.26-5.13 5.048 0 .396.046.781.134 1.151A14.641 14.641 0 011.74.923a4.97 4.97 0 00-.694 2.54 5.03 5.03 0 002.282 4.204 5.186 5.186 0 01-2.325-.633v.063c0 2.447 1.77 4.486 4.114 4.952a5.208 5.208 0 01-2.317.085c.655 2.004 2.548 3.468 4.791 3.508a10.385 10.385 0 01-6.37 2.16c-.414 0-.822-.023-1.221-.071A14.658 14.658 0 007.862 20c9.434 0 14.593-7.693 14.593-14.365 0-.218-.005-.439-.013-.654A10.338 10.338 0 0025 2.367z"/></svg>