<svg xmlns="http://www.w3.org/2000/svg" width="22" height="20" viewBox="0 0 22 20"><path fill="#3F414D" fill-rule="evenodd" d="M4.714 0l1.572 4.615v3.077h1.047V4.615L8.905 0H7.857L6.81 3.077 5.762 0H4.714zm5.762 2.051c-.558 0-.833.086-1.174.36-.328.271-.418.48-.397 1.179v2.564c0 .51.086.847.4 1.146.328.298.637.392 1.171.392.559 0 .864-.094 1.179-.392.327-.287.393-.635.393-1.146V3.59c0-.453-.082-.882-.4-1.168-.327-.295-.664-.37-1.172-.37zm2.62 0v4.616c0 .498.513 1.025 1.047 1.025.534 0 .816-.262 1.047-.513v.513h1.048v-5.64H15.19v4.102c-.006.35-.427.513-.523.513-.109 0-.524-.022-.524-.513V2.05h-1.048zm-2.62 1.026c.158 0 .524-.002.524.513v2.564c0 .497-.354.513-.524.513-.157 0-.524-.006-.524-.513V3.59c0-.419.228-.513.524-.513zm-7.333 5.64C1.26 8.718 0 9.94 0 11.796v4.872C0 18.522 1.26 20 3.143 20h15.714C20.74 20 22 18.778 22 16.923v-5.128c0-1.855-1.26-3.077-3.143-3.077H3.143zM4.19 10.77h3.143v1.026H6.286v6.154H5.238v-6.154H4.19V10.77zm7.334 0h1.047v2.052c.121-.185.301-.331.473-.413.168-.084.338-.132.51-.132.34 0 .605.12.787.344.182.227.326.527.326.97v3.077c0 .38-.131.617-.303.819-.168.202-.42.459-.745.463-.55.006-.845-.283-1.048-.513v.513h-1.047v-7.18zm-4.19 1.539H8.38v4.102c0 .118.141.517.524.513.425-.004.43-.393.524-.513v-4.102h1.047v5.64H9.43v-.512c-.195.224-.295.294-.514.4-.217.12-.438.113-.642.113-.254 0-.543-.225-.678-.393-.12-.154-.262-.312-.262-.633v-4.615zm9.532 0c.497 0 .847.104 1.111.376.27.273.356.591.356 1.104v1.597h-2.095v.793c0 .286.039.469.115.577.071.118.217.17.409.168.213-.002.348-.044.42-.138.073-.084.104-.323.104-.631v-.257h1.047v.305c0 .559-.045.975-.327 1.248-.266.286-.681.419-1.226.419-.497 0-.886-.145-1.164-.441-.278-.297-.423-.703-.423-1.226v-2.414c0-.465.165-.81.47-1.116.246-.246.706-.364 1.203-.364zm-3.77.769a.539.539 0 00-.525.513v3.077c.005.148.236.256.524.256a.51.51 0 00.524-.5v-2.577c0-.513-.235-.77-.524-.77zm3.666.256a.527.527 0 00-.524.513v.513h1.048v-.513c0-.314-.236-.513-.524-.513z"/></svg>